# xmcd
#
# Track frame offsets: 
#        150
#        29972
#        65152
#        87485
#        100455
#        142235
#        166890
#        192840
#        221315
#        253727
#
# Disc length: 3697 seconds
#
# Revision: 4
# Processed by: cddbd v1.5.1PL0 Copyright (c) Steve Scherf et al.
# Submitted via: ExactAudioCopy v0.95a5
#
DISCID=9e0e6f0a
DTITLE=Ozzy Osbourne - Live and Loud [CD2] (1995 Remaster]
DYEAR=1993
DGENRE=Metal
TTITLE0=Shot in the Dark
TTITLE1=No More Tears
TTITLE2=Miracle Man
TTITLE3=Drum Solo
TTITLE4=War Pigs
TTITLE5=Bark At the Moon
TTITLE6=Mama, I'm Coming Home
TTITLE7=Crazy Train
TTITLE8=Black Sabbath
TTITLE9=Changes
EXTD=Ozzy: Live and Loud II
EXTT0=
EXTT1=
EXTT2=
EXTT3=
EXTT4=
EXTT5=
EXTT6=
EXTT7=
EXTT8=
EXTT9=
PLAYORDER=
